PathFileType  4	(X/Y/Z) C:\Users\antoi\Documents\MyRepositories\mobilecap\ResultsAnalysis
DataRate	CameraRate	NumFrames	NumMarkers	Units	OrigDataRate	OrigDataStartFrame	OrigNumFrames
100.0	100.0	4	51	mm	100.0	204	1631
Frame#	Time	r_knee			r_shank_antsup			r_ankle			r_calc			r_5meta			r_toe			L_knee			L_shank_antsup			L_ankle			L_calc			L_5meta			L_toe			r_sh2			r_sh3			r_sh4			L_sh2			L_sh3			r_thigh1			r_thigh2			r_thigh3			r_thigh4			r_thigh5			L_thigh1			L_thigh2			L_thigh3			L_thigh4			r.ASIS			r.PSIS			L.ASIS			L.PSIS			C7			R_Shoulder			L_Shoulder			R_Sternum			L_Sternum			R_humerus			R_elbow_med			R_elbow_lat			R_forearm			R_wrist_radius			R_wrist_ulna			L_humerus			L_elbow_med			L_elbow_lat			L_forearm			L_wrist_radius			L_wrist_ulna			R_HJC			L_HJC			R_HJC_reg			L_HJC_reg			
		X1	Y1	Z1	X2	Y2	Z2	X3	Y3	Z3	X4	Y4	Z4	X5	Y5	Z5	X6	Y6	Z6	X7	Y7	Z7	X8	Y8	Z8	X9	Y9	Z9	X10	Y10	Z10	X11	Y11	Z11	X12	Y12	Z12	X13	Y13	Z13	X14	Y14	Z14	X15	Y15	Z15	X16	Y16	Z16	X17	Y17	Z17	X18	Y18	Z18	X19	Y19	Z19	X20	Y20	Z20	X21	Y21	Z21	X22	Y22	Z22	X23	Y23	Z23	X24	Y24	Z24	X25	Y25	Z25	X26	Y26	Z26	X27	Y27	Z27	X28	Y28	Z28	X29	Y29	Z29	X30	Y30	Z30	X31	Y31	Z31	X32	Y32	Z32	X33	Y33	Z33	X34	Y34	Z34	X35	Y35	Z35	X36	Y36	Z36	X37	Y37	Z37	X38	Y38	Z38	X39	Y39	Z39	X40	Y40	Z40	X41	Y41	Z41	X42	Y42	Z42	X43	Y43	Z43	X44	Y44	Z44	X45	Y45	Z45	X46	Y46	Z46	X47	Y47	Z47	X48	Y48	Z48	X49	Y49	Z49	X50	Y50	Z50	X51	Y51	Z51	

204	2.03000000	-182.47538	503.32953	-466.07590	-160.56804	428.03899	-442.64286	-315.40036	104.49374	-457.92637	-375.51349	48.24954	-504.85793	-179.79820	48.36607	-405.93262	-141.94014	74.66167	-462.87568	-175.20289	501.75030	-775.68666	-162.75597	391.83911	-791.52584	-311.56952	98.21593	-760.40718	-379.72782	50.02929	-723.73105	-163.26355	40.69448	-803.71032	-136.16811	71.55796	-742.21779	-196.77670	321.01364	-437.73698	-230.77150	452.74094	-432.50755	-276.02087	344.60900	-429.90529	-245.71616	426.58260	-801.39993	-280.78025	311.36165	-798.18323	-378.79916	744.15681	-431.26843	-287.30093	688.30519	-442.48460	-293.70691	624.44726	-415.72941	-437.24722	644.70905	-435.81044	-333.26489	588.00921	-433.26957	-369.22651	750.57428	-798.12498	-256.51744	672.27433	-794.39700	-439.28152	649.71172	-804.46493	-317.89555	581.35618	-805.47516	-417.44444	821.64767	-485.30208	-585.91830	909.24003	-568.15301	-410.78372	822.22377	-743.58153	-584.48112	907.08760	-672.17856	-258.05305	1320.44990	-627.43739	-208.16177	1252.15741	-450.86873	-195.82121	1246.87329	-783.77367	-162.43227	1181.07700	-589.77531	-162.02470	1178.70649	-643.70469	-372.30477	1061.38028	-329.15966	-467.76881	997.69879	-383.65963	-438.13382	1001.71524	-300.02156	-373.66227	852.36989	-310.85681	-331.07663	746.79691	-338.70182	-368.30945	745.43039	-313.53274	-348.43109	1065.03648	-908.54385	-460.87478	1018.81785	-871.05501	-418.17910	1014.88101	-940.09098	-362.81086	845.91910	-918.47414	-320.39497	765.92305	-887.49939	-351.85116	749.55004	-903.16984	-517.11943	767.01510	-494.92733	-508.48737	766.24519	-725.13239	-506.03809	771.65181	-522.08153	-503.68221	768.12417	-692.55035	
205	2.04000000	-181.40066	502.42724	-466.18738	-159.34140	427.26626	-442.50735	-315.61836	104.56235	-458.02430	-375.59587	48.05964	-504.99690	-180.02672	48.96713	-405.95645	-142.08423	75.41001	-462.77910	-174.12025	500.82782	-775.94692	-161.85042	391.49091	-791.90267	-311.60211	98.27723	-760.39469	-379.77921	50.01572	-723.66664	-163.32498	40.85835	-803.70938	-136.20982	71.83261	-742.31252	-195.97208	320.20604	-438.06087	-229.73678	452.03383	-432.70967	-275.16435	344.09634	-430.01102	-244.69051	426.14826	-801.22948	-280.40923	310.48334	-797.41029	-381.25981	740.01677	-431.47969	-289.02093	685.73921	-442.56918	-294.26651	621.67111	-415.81126	-438.26105	639.43204	-435.73521	-333.29071	584.37704	-433.39450	-372.96144	746.44516	-799.10649	-257.85551	670.00544	-794.52004	-440.46703	644.38788	-804.39622	-317.96235	577.94098	-805.46405	-420.71572	814.93966	-485.68765	-589.06386	902.18441	-568.00134	-413.57783	815.88764	-743.94460	-587.58399	899.90741	-671.95168	-259.22977	1312.13992	-627.55450	-209.49965	1243.60851	-451.06195	-197.01296	1238.21740	-783.94702	-164.15332	1172.34090	-589.96614	-163.73055	1169.93860	-643.66266	-374.73631	1054.71019	-328.17161	-470.54941	991.16728	-382.20365	-440.58920	995.34301	-298.72507	-375.44641	846.43993	-309.45702	-332.06873	741.08686	-337.40984	-369.47998	739.44508	-312.25118	-350.30317	1057.49086	-909.24177	-463.19106	1011.71968	-872.01362	-420.22142	1007.80953	-941.18987	-364.94013	838.75793	-919.35590	-322.53057	758.97311	-888.16332	-353.89241	742.43159	-903.98774	-519.89224	759.91394	-495.20249	-511.27534	759.60120	-725.40873	-509.01467	765.13337	-522.43252	-506.58764	761.39933	-692.89094	
206	2.05000000	-180.32998	501.49970	-466.44047	-158.35565	426.31893	-442.99796	-315.73128	104.57590	-458.10913	-375.64866	47.92810	-505.00058	-180.15644	49.45709	-406.11101	-142.28777	75.89615	-462.88268	-173.19067	499.90500	-776.25900	-160.89109	391.28878	-792.54203	-311.62172	98.34210	-760.37248	-379.81014	50.01037	-723.56551	-163.39013	41.02985	-803.71733	-136.23397	72.02995	-742.34036	-195.19584	319.56077	-438.33909	-228.68128	451.27121	-432.91876	-274.19292	343.53279	-430.22174	-243.64894	425.81018	-801.43400	-279.81786	309.95171	-797.25195	-383.83342	735.84650	-431.61414	-290.68815	683.23455	-442.86740	-294.84857	618.79183	-416.47465	-439.14204	634.19445	-435.90373	-333.18044	580.76936	-433.31748	-375.08123	741.78600	-798.79826	-259.41503	667.58160	-794.70995	-441.53040	639.18153	-804.54392	-317.88998	574.49551	-805.57561	-423.86710	808.14844	-486.22689	-591.99996	894.93418	-568.27220	-416.21193	809.63873	-744.24724	-590.78871	892.70603	-671.85974	-260.50668	1303.91488	-627.64107	-210.95490	1235.11409	-451.34183	-198.30069	1229.70293	-784.04911	-166.02096	1163.72298	-590.23868	-165.53878	1161.30998	-643.80864	-377.01034	1047.93353	-327.22622	-473.15951	984.44195	-380.72515	-443.04593	989.08194	-297.14535	-377.12852	840.41190	-307.99495	-332.81979	735.53899	-336.11548	-370.45012	733.28434	-311.28880	-352.18905	1049.89184	-909.82704	-465.38071	1004.48732	-873.07375	-422.27264	1000.60053	-942.10408	-366.90229	831.65865	-920.29049	-324.47033	752.07688	-888.89450	-355.70245	735.26682	-904.69733	-522.55789	752.69993	-495.68881	-513.83490	752.94221	-725.89124	-511.53875	758.50206	-522.71090	-509.54955	754.83968	-693.03038	
207	2.06000000	-179.23629	500.75908	-466.44109	-157.41202	425.45330	-443.50368	-315.78487	104.63738	-458.19730	-375.70208	47.83468	-504.98093	-180.22127	49.92028	-406.21748	-142.53716	76.20473	-463.01954	-172.19464	499.21938	-776.74003	-159.89193	390.84835	-792.84858	-311.63136	98.39527	-760.33837	-379.84420	49.96257	-723.38037	-163.48099	41.29642	-803.85292	-136.27050	72.17914	-742.38689	-194.42603	318.97908	-438.63890	-227.46346	450.85745	-432.94385	-273.24286	343.03633	-430.57776	-242.60873	425.42427	-801.78807	-279.10928	309.90763	-797.66821	-386.43318	731.59441	-431.59103	-292.39165	680.69664	-443.22733	-295.44160	616.02433	-416.88029	-439.86627	629.03129	-436.20047	-333.01808	577.38249	-432.81850	-376.81156	737.00448	-798.19547	-261.07407	665.09595	-794.89902	-442.53306	633.96855	-804.80896	-317.89869	571.42577	-806.45140	-426.51161	801.57366	-486.59545	-594.91656	887.61161	-568.59809	-418.84891	803.42651	-744.41963	-594.05869	885.51369	-671.91985	-261.97108	1295.81282	-627.75923	-212.55116	1226.78670	-451.67049	-199.76959	1221.35195	-784.26296	-168.01048	1155.26691	-590.47574	-167.54054	1152.88108	-644.10688	-379.15955	1041.19773	-326.30391	-475.86097	977.73202	-378.96767	-445.39545	982.81627	-295.39682	-378.66450	834.45129	-306.52495	-333.43075	730.13590	-334.91454	-371.12376	727.20795	-310.34078	-354.10450	1042.45011	-910.65752	-467.51409	997.16487	-874.22145	-424.28801	993.32046	-942.98700	-368.67416	824.55830	-921.13416	-326.19796	745.12052	-889.58415	-357.29708	728.11915	-905.48549	-524.89649	745.64991	-496.03090	-516.21615	746.20015	-726.23468	-513.64068	751.70077	-522.78860	-512.22840	748.24564	-692.99037	
